<?xml version="1.0" encoding="UTF-8"?>
<svg version="1.1" xmlns="http://www.w3.org/2000/svg" width="512" height="512"><path fill="#020101" d="M261 0q6.7 3 12.9 7l11.3 6.7Q294 19.1 303 24l7 4 3.5 2 8.7 5 37 21 1.7 1 28.7 16.6 23.9 13.6 23.3 13.5q12.8 7.5 25.7 14.5 7 3.7 13.6 7.9l2.1 1.3c2.8 2.5 3.7 5 4 8.7V155l.1 47v173.7l.1 3c0 5.2-.4 9-3.4 13.4a54 54 0 0 1-6.8 4.4l-2.2 1.2q-14.3 8-28.9 15.5l-20.5 11.2-18.6 10.2-21 11.5q-12 6.7-24.1 13.2L339 469q-12 6.7-24.1 13.2l-20 11-23 12.5-3 1.6-2.6 1.4c-2.5 1.4-2.5 1.4-5.3 3.3-9 2-16-2.7-23.5-7.1a1184 1184 0 0 0-29.2-16.3l-23.5-12.8-18.8-10.3-23.1-12.7-18.9-10.3-23.1-12.7-18.6-10.1a1430 1430 0 0 1-39.7-22l-2-1.2-5-2.6c-3.3-2.4-4.1-4.1-5.6-7.9q-.5-5.2-.4-10.4V138.4c0-5.2.5-8.9 3.4-13.4 2.1-1.7 2.1-1.7 4.7-3.2l2.8-1.6 3.1-1.7 3.3-1.8 25.7-14.4a1157 1157 0 0 0 35.6-20.6l8.1-4.7c3.4-1.3 6-1.3 9.7-1l2.6 1.6c2.3 1.7 2.3 1.7 5 .7a80 80 0 0 0 10.8-5.4l2-1.2L151 69v-3.8c-.2-4 .5-6 3-9.2 4-2.7 7.3-2.6 12-2l4 3c5-1.5 9.6-4.6 14-7.3 4.8-2.7 4.8-2.7 7-2.7l-1-2c-.5-4.1-.5-6.3 1.8-9.8 4-4.5 9.3-7 14.5-9.7l6.7-3.7 3.5-1.9q8.4-4.6 16.6-9.5l3-1.8L239 7l2.7-1.6q2.2-1.2 4.3-2.7A18 18 0 0 1 261.1 0"/><path fill="#fdbcc9" d="M255 106h2l1 1.7q10.2 18.1 20.6 36.1l18.5 32 9.4 16.2 5.6 9.8 37.5 65 28.5 49.1 2 3.4 3.7 6.3 1.7 2.9 1.5 2.5c1 2 1 2 1 4H124c1.5-3.6 2.9-6.7 4.8-10.1l1.6-3 1.8-3.2 2-3.4 16.2-28.2 11-19 2-3.2 3.7-6.6 9.4-16.3 3.8-6.5 22.4-39 2-3.3z"/><path fill="#fd9db0" d="M276 100q13.7 2 27.2 5.5a2061 2061 0 0 0 58.7 13q24.9 5.3 49.6 11.1 23.2 5.3 46.5 10.4a115 115 0 0 1-5.3 21 291 291 0 0 0-6.2 20q-3 11-6.8 22-2.6 7.7-5 15.6a1818 1818 0 0 1-15 49.1l-11.2 36-.7 2.3-3.8 13h-2l-80.6-139.8-42.3-72.8-1.8-3C276 101 276 101 276 100"/><path fill="#fe9db0" d="m236 101-48.7 84.5-2 3.3-72 124.9-1.8 3-1.5 2.3h-2l-14-46-.9-2.6-20.9-68.3-.6-2-4.5-13.8q-4.2-12.6-7.7-25.4-2.2-7.8-4.7-15.5C54 143 54 143 54 140q27.7-6.5 55.8-12.4 21.4-4.6 42.7-9.6a2065 2065 0 0 1 56.8-12.3 376 376 0 0 0 20.7-5c3-.7 3-.7 6 .3"/><path fill="#fd7c96" d="M130 355h252c-6.7 9-6.7 9-10.5 12.7l-2.4 2.4-2.5 2.4q-7.8 7.4-15 15.6-4.3 4.8-9.1 9.4c-5.7 5.6-5.7 5.6-11 11.5-4 4.8-8.6 9.1-13 13.5a147 147 0 0 0-9 9.5c-4 4.8-8.6 9.1-13 13.5a147 147 0 0 0-9 9.5c-4 4.8-8.6 9-13 13.5q-5.9 5.6-11.1 12-3 3.3-6.4 6.5c-6.7-2.9-11.5-9.2-16.1-14.6q-5.5-6.2-11.4-11.9-6.6-6.4-12.5-13.3-4.6-5-9.5-9.7a201 201 0 0 1-12.5-13.3q-4.6-5-9.5-9.7a201 201 0 0 1-12.5-13.3q-4.6-5-9.5-9.7c-8-7.9-8-7.9-11-11.5q-3.4-4-7.1-7.6l-2-2-7.7-7.5q-3-3.7-5.7-7.9"/><path fill="#fcdce2" d="M246 28v50l-14 3q-20.3 4.2-40.4 9-21 4.8-42.2 9.3a813 813 0 0 0-35.4 8.1l-2.7.7-2.3.6c-2 .3-2 .3-5-.7l2.2-1.2 9.6-5.6 3.4-2 3.3-1.8 3-1.8c2.7-1.6 2.7-1.6 5.5-4.6V80l20-11v-8c1.6-3.6 2.7-4.8 6-7 4.1-.6 7.8-.9 11.3 1.6L170 57c5-1.5 9.5-4.6 14-7.3s4.4-2.7 7.3-2.5c1.7.8 1.7.8 4 2.4 3.7 1.9 5.7 1.2 9.7.4 3.1-1.3 3.1-1.3 6.2-3.1l3.4-2 20.9-12 3.2-1.9 3-1.7C244 28 244 28 246 28"/><path fill="#fc7b95" d="M460 202h1v164c-11.3-5.6-11.3-5.6-16.2-8.6l-3.2-2-3.2-1.9-3.3-2L418 341c.7-5.8 2.5-11.2 4.3-16.8l2.2-7 .6-2 7.2-23.5 14.8-48.6c9-29.4 9-29.4 12.9-41.1m-409 0a90 90 0 0 1 5.7 14.9q7.9 24.2 15 48.6l6 19.4 3.1 10.3q6 20.1 12.6 40.1c.7 3 .8 4-.4 6.7-2.6 1.9-2.6 1.9-6 3.9l-2 1-15.5 9q-7.4 4-14.4 8.9C53 366 53 366 51 366zM266 28a47 47 0 0 1 11 4.8l2.8 1.6 3 1.9q12.7 7.5 25.7 14.7 13.8 7.7 27.5 15.8l24.6 14q11 6 22 12.6 13 7.6 26.4 14.6c-4.1 1.7-7.9.2-12-1q-14.7-3.7-29.4-7l-2.4-.5-34-7.1a1328 1328 0 0 1-43.3-9.8Q277 80 266 78z"/><path fill="#fb5b7b" d="M407 358q6 2.3 11.5 5.7l1.9 1 9.7 5.8q10.3 5.9 19.9 12.5a31 31 0 0 1-8.8 6.8l-3 1.5-9.6 5.1-3.4 1.8-14.3 8.1q-14.3 8-28.8 15.7-12.5 6.6-24.6 13.5a1100 1100 0 0 1-35.3 19.3l-3.2 1.7a82 82 0 0 1-8 3.5c1.5-3.4 3.3-5.5 5.9-8l2.3-2.4 2.5-2.4q7.6-7.3 14.6-15.3 4.5-4.9 9.2-9.4c5.7-5.6 5.7-5.6 11-11.5 4-4.8 8.6-9.1 13-13.5q5.5-5.5 10.6-11.3 5.2-5.7 10.8-11 5.5-5.6 10.8-11.6 2.4-3 5.3-5.6m-302 .7q3 2 5.4 4.8l4 4.3q7.6 8.3 15.7 16.3 4.9 4.6 9.3 9.8 5.3 6 11.1 11.6 6.6 6.4 12.5 13.3 5.5 6 11.4 11.6 4.7 4.5 9 9.5a217 217 0 0 0 12 12.6l2.3 2.2 5.3 5.3-2 1-4.6-2.3-3-1.6-3-1.7-3.3-1.8q-12.5-6.9-24.8-14-9.9-5.6-20.1-10.8-11-5.8-21.7-12l-18-9.8q-11-5.8-21.7-11.8l-2.9-1.6A371 371 0 0 1 62 384q3.1-3.4 7-5.5l2.5-1.5 2.6-1.5a489 489 0 0 0 23.2-14.4l2-1.3 2-1.2c1.7-.6 1.7-.6 3.7 0"/><path fill="#fabac7" d="M293 241c3.5 2 6.5 4.2 7.6 8.1q.4 3.7.3 7.5v2.8l-.1 5.7v17.1c-.2 4.4-.4 6.2-3.2 9.8-4 3.1-6.5 3.4-11.6 3a15 15 0 0 1-7-8q-.3-4.2-.3-8.5V276l-.2-18.2v-2.4c0-5.3 1-8.2 4.5-12.4 3.2-2.4 6.1-2.6 10-2"/><path fill="#020202" d="M166 54c3.3 1.7 3.8 2.4 5 6 .4 4.4.5 7-1.4 11a14 14 0 0 1-9.3 3.3c-4-.5-5.6-2.4-8.3-5.3-1.8-3.5-1-7.3 0-11 3.7-4.8 8.4-4.9 14-4"/></svg>